<?xml version="1.0" encoding="UTF-8"?>
<svg version="1.1" xmlns="http://www.w3.org/2000/svg" width="275" height="272">
<path d="M0 0 C90.75 0 181.5 0 275 0 C275 89.76 275 179.52 275 272 C184.25 272 93.5 272 0 272 C0 182.24 0 92.48 0 0 Z " fill="#010101" transform="translate(0,0)"/>
<path d="M0 0 C4.74032403 4.09391621 5.78600085 6.218011 6.25 12.25 C5.95813886 16.6279171 5.23559301 20.19615517 3 24 C0.125 26.1875 0.125 26.1875 -3 28 C-4.69371521 29.63917184 -6.35612015 31.31085389 -8 33 C-9.02353798 34.00516 -10.04966921 35.00768486 -11.078125 36.0078125 C-12.13546178 37.04682909 -13.192753 38.08589205 -14.25 39.125 C-14.79140625 39.64964844 -15.3328125 40.17429688 -15.890625 40.71484375 C-18.32647988 43.12025044 -19.90178135 44.70534405 -21 48 C-19.88625 48.185625 -19.88625 48.185625 -18.75 48.375 C-16.19858515 48.95486701 -14.2732427 49.73708739 -12 51 C-12 51.66 -12 52.32 -12 53 C-11.34 53.04125 -10.68 53.0825 -10 53.125 C-1.78649668 55.52060514 4.40055805 63.17798338 10.1875 69.125 C16.77237861 75.91609162 16.77237861 75.91609162 24 82 C29.24564508 86.73387483 32.51153671 90.92268127 33.625 97.9375 C33.34666778 103.04688437 30.50944647 106.48248584 27 110 C22.78034696 113.09441223 19.34413207 113.47906737 14.3046875 112.70703125 C7.02861408 110.47487991 1.25813519 103.79295668 -3.375 98.0625 C-5.74722885 95.15316273 -8.42643236 92.82596977 -11.3125 90.4375 C-13 89 -13 89 -15.5 86.4375 C-22.05527748 80.04610446 -27.86518328 76.92472618 -37.18359375 77.0390625 C-43.27091512 77.41908025 -49.24085139 77.93539955 -55 80 C-56.27489266 81.79927039 -56.27489266 81.79927039 -57 84 C-58.61974559 85.71230248 -60.2958946 87.37163262 -62 89 C-62.56332031 89.58394531 -63.12664062 90.16789062 -63.70703125 90.76953125 C-64.29871094 91.38183594 -64.89039062 91.99414062 -65.5 92.625 C-66.0465625 93.19476563 -66.593125 93.76453125 -67.15625 94.3515625 C-69 96 -69 96 -71.46875 97.4375 C-74.21681071 99.13383377 -75.91960371 100.91711245 -78 103.375 C-78.68578125 104.16777344 -79.3715625 104.96054688 -80.078125 105.77734375 C-80.71234375 106.51082031 -81.3465625 107.24429688 -82 108 C-84.71458558 110.97890049 -87.20191379 113.45263154 -91 115 C-91 115.66 -91 116.32 -91 117 C-92.609375 118.5859375 -92.609375 118.5859375 -94.75 120.375 C-95.47960937 121.00148438 -96.20921875 121.62796875 -96.9609375 122.2734375 C-98.43048245 123.51776483 -99.90209146 124.75965597 -101.375 126 C-103.61640416 128.75865127 -104.20982697 131.57591686 -105 135 C-105.66 135 -106.32 135 -107 135 C-107.93309616 150.80411331 -107.93309616 150.80411331 -101.08203125 164.42578125 C-97.14377592 168.52763523 -93.05651294 172.43977489 -88.5234375 175.87890625 C-85.70657356 178.24664173 -83.47993272 180.85110409 -81.09228516 183.64111328 C-77.30141843 187.91501693 -73.22927483 191.91845635 -69.18237305 195.94799805 C-67.66921334 197.45572096 -66.16157115 198.96881759 -64.65429688 200.48242188 C-63.69042526 201.44563392 -62.72624416 202.4085364 -61.76171875 203.37109375 C-60.89506592 204.23661865 -60.02841309 205.10214355 -59.13549805 205.99389648 C-57.16515239 208.0367774 -57.16515239 208.0367774 -55 209 C-55 209.66 -55 210.32 -55 211 C-45.69669442 214.07668373 -35.26187735 216.38376307 -25.96557617 212.04150391 C-16.36979056 206.95696516 -9.12505179 198.22891788 -1.69433594 190.50244141 C-0.06289646 188.81045464 1.58089073 187.13125585 3.2265625 185.453125 C3.71734283 184.93542542 4.20812317 184.41772583 4.71377563 183.88433838 C8.55991116 179.98339924 12.09316648 178.09179474 17.59765625 177.91796875 C26.45737111 178.88678068 26.45737111 178.88678068 30 182 C32.58367162 185.83096137 33.60860396 189.28250165 33.41345215 193.94099426 C32.03489203 200.80627048 26.15033706 206.28761334 21.34375 211.01953125 C20.4066217 211.9574073 20.4066217 211.9574073 19.45056152 212.91423035 C18.13974777 214.22272105 16.82528275 215.52756348 15.50732422 216.82885742 C13.49654136 218.81591784 11.4995472 220.81610385 9.50390625 222.81835938 C8.22214601 224.09454579 6.93962006 225.36996372 5.65625 226.64453125 C5.0634021 227.23829056 4.4705542 227.83204987 3.85974121 228.44380188 C-3.82633753 236 -3.82633753 236 -8 236 C-8 236.66 -8 237.32 -8 238 C-16.42857143 241.42857143 -16.42857143 241.42857143 -21 241 C-21 241.66 -21 242.32 -21 243 C-26.91781337 245.06189931 -32.20418214 245.24167838 -38.4375 245.125 C-39.35982422 245.11597656 -40.28214844 245.10695313 -41.23242188 245.09765625 C-43.48855809 245.0742766 -45.74413684 245.04150916 -48 245 C-48 244.34 -48 243.68 -48 243 C-49.0725 243.04125 -50.145 243.0825 -51.25 243.125 C-54.8529013 243.00490329 -55.99651305 242.64707349 -59 241 C-60.99110401 240.61709538 -62.99100513 240.27395385 -65 240 C-65 239.34 -65 238.68 -65 238 C-65.57610016 237.8948407 -66.15220032 237.7896814 -66.74575806 237.68133545 C-75.42101247 235.05927512 -82.69097068 225.63559846 -88.9140625 219.421875 C-89.93804425 218.40434179 -90.96216619 217.38694963 -91.98641968 216.36968994 C-94.11948623 214.24851313 -96.24846732 212.12333156 -98.375 209.99560547 C-101.07550699 207.29489528 -103.78952282 204.60821999 -106.50727272 201.92487717 C-108.62312116 199.83146167 -110.72961895 197.72881915 -112.83375168 195.62363434 C-113.82948739 194.63022853 -114.82839672 193.63999152 -115.83076859 192.65328217 C-127.88087448 180.77404976 -136.87553169 168.07932062 -137.1328125 150.7578125 C-137.1354422 148.88020837 -137.13273732 147.00259003 -137.125 145.125 C-137.12886719 144.16335937 -137.13273437 143.20171875 -137.13671875 142.2109375 C-137.13542969 141.29828125 -137.13414062 140.385625 -137.1328125 139.4453125 C-137.13168457 138.61531738 -137.13055664 137.78532227 -137.12939453 136.93017578 C-137 135 -137 135 -136 134 C-135.67495116 132.31861101 -135.39029638 130.62934619 -135.125 128.9375 C-134.26913907 123.97091311 -132.9289438 119.64700097 -131 115 C-130.01 115 -129.02 115 -128 115 C-127.814375 114.175 -127.62875 113.35 -127.4375 112.5 C-123.90149071 103.89058607 -115.38977282 97.23166069 -108.92138672 90.74438477 C-107.92337417 89.74009209 -106.92554617 88.73561598 -105.92788696 87.73097229 C-102.68200963 84.46426906 -99.43099111 81.20270729 -96.1796875 77.94140625 C-95.0557555 76.81342125 -93.93185559 75.68540427 -92.80798721 74.55735588 C-87.53474006 69.26511921 -82.25912877 63.97525348 -76.980564 58.6883207 C-70.89750189 52.59545261 -64.82284323 46.49436123 -58.755041 40.38629681 C-54.05274656 35.65387668 -49.34283429 30.92912625 -44.62711155 26.21008724 C-41.8146911 23.3953161 -39.00567547 20.57733404 -36.20467758 17.75119209 C-33.57528979 15.09857503 -30.93660135 12.45558114 -28.29043198 9.81970787 C-26.85936157 8.38937061 -25.43822462 6.94911643 -24.01739502 5.50860596 C-23.1623941 4.66054886 -22.30739319 3.81249176 -21.42648315 2.93873596 C-20.68800077 2.19786523 -19.94951839 1.4569945 -19.18865776 0.69367313 C-13.93489541 -3.37190363 -5.684218 -3.14127837 0 0 Z " fill="#FAFAF9" transform="translate(174,15)"/>
<path d="M0 0 C1.6130175 -0.0076664 1.6130175 -0.0076664 3.25862122 -0.01548767 C6.81114271 -0.02938134 10.3634702 -0.02842724 13.91601562 -0.02612305 C16.38553947 -0.03000968 18.85506265 -0.03434428 21.32458496 -0.03910828 C26.49945239 -0.0465697 31.67425159 -0.04627942 36.84912109 -0.04101562 C43.48380936 -0.03521669 50.11821886 -0.05216289 56.75286102 -0.0753603 C61.85204707 -0.09008304 66.95116573 -0.09097139 72.05036926 -0.08785057 C74.49681654 -0.08836437 76.94326753 -0.09361302 79.38969421 -0.10366249 C82.80815836 -0.11598294 86.22607601 -0.10926149 89.64453125 -0.09765625 C91.16268181 -0.10912186 91.16268181 -0.10912186 92.71150208 -0.12081909 C99.64135676 -0.06875483 102.94733237 1.11083013 108.13476562 5.8371582 C110.90451094 9.31240469 110.80748477 12.59755877 110.69335938 16.9074707 C109.91872913 21.84879625 107.29091733 24.94250744 103.50774956 28.033741 C99.25376921 30.44914993 94.74449537 30.0538647 89.97094727 29.95581055 C88.28692307 29.95712479 88.28692307 29.95712479 86.56887817 29.95846558 C82.87267525 29.95429865 79.17830623 29.90768398 75.48242188 29.8605957 C72.91410819 29.84940051 70.34578166 29.84086185 67.77745056 29.83486938 C61.7176666 29.81433247 55.658635 29.76708804 49.59913391 29.70677245 C42.69713998 29.63957079 35.79511384 29.60668428 28.89287388 29.57659984 C14.70232077 29.51398354 0.51231647 29.4085343 -13.67773438 29.2746582 C-14.00773437 28.6146582 -14.33773437 27.9546582 -14.67773438 27.2746582 C-15.66773437 26.8002832 -16.65773438 26.3259082 -17.67773438 25.8371582 C-20.67773438 24.2746582 -20.67773438 24.2746582 -21.67773438 21.2746582 C-21.77151126 19.44325079 -21.80766395 17.60845833 -21.80273438 15.7746582 C-21.8053125 14.8155957 -21.80789062 13.8565332 -21.81054688 12.8684082 C-21.61999994 9.14713857 -20.90190799 7.52996705 -18.42773438 4.7121582 C-12.72199422 -0.34520239 -7.29298543 -0.01785175 0 0 Z " fill="#AFAEAD" transform="translate(134.677734375,145.725341796875)"/>
<path d="M0 0 C3.85434099 3.38714814 4.91433234 6.66420067 5.5625 11.6875 C5.232189 19.57239397 -1.28237237 25.60316457 -6.59375 30.83203125 C-7.2185022 31.45728195 -7.84325439 32.08253265 -8.48693848 32.72673035 C-9.79775223 34.03522105 -11.11221725 35.34006348 -12.43017578 36.64135742 C-14.44095864 38.62841784 -16.4379528 40.62860385 -18.43359375 42.63085938 C-19.71535399 43.90704579 -20.99787994 45.18246372 -22.28125 46.45703125 C-22.8740979 47.05079056 -23.4669458 47.64454987 -24.07775879 48.25630188 C-31.76383753 55.8125 -31.76383753 55.8125 -35.9375 55.8125 C-35.9375 56.4725 -35.9375 57.1325 -35.9375 57.8125 C-44.36607143 61.24107143 -44.36607143 61.24107143 -48.9375 60.8125 C-48.9375 61.4725 -48.9375 62.1325 -48.9375 62.8125 C-54.85531337 64.87439931 -60.14168214 65.05417838 -66.375 64.9375 C-67.29732422 64.92847656 -68.21964844 64.91945313 -69.16992188 64.91015625 C-71.42605809 64.8867766 -73.68163684 64.85400916 -75.9375 64.8125 C-75.9375 64.1525 -75.9375 63.4925 -75.9375 62.8125 C-77.01 62.85375 -78.0825 62.895 -79.1875 62.9375 C-82.7904013 62.81740329 -83.93401305 62.45957349 -86.9375 60.8125 C-88.92860401 60.42959538 -90.92850513 60.08645385 -92.9375 59.8125 C-92.9375 59.1525 -92.9375 58.4925 -92.9375 57.8125 C-93.515 57.73 -94.0925 57.6475 -94.6875 57.5625 C-97.5534304 56.60718987 -98.9365764 55.02780827 -100.9375 52.8125 C-100.20144531 52.85890625 -99.46539062 52.9053125 -98.70703125 52.953125 C-92.4498914 53.29820674 -92.4498914 53.29820674 -86.875 50.8125 C-86.235625 50.1525 -85.59625 49.4925 -84.9375 48.8125 C-84.2775 48.8125 -83.6175 48.8125 -82.9375 48.8125 C-81.40935178 43.08194418 -81.05613514 36.45659459 -82.9375 30.8125 C-82.28265625 31.0290625 -81.6278125 31.245625 -80.953125 31.46875 C-71.15869487 34.45688123 -61.26750952 35.75621142 -51.9375 30.8125 C-43.35534439 25.43769014 -36.59797161 17.55834628 -29.63183594 10.31494141 C-28.00039646 8.62295464 -26.35660927 6.94375585 -24.7109375 5.265625 C-24.22015717 4.74792542 -23.72937683 4.23022583 -23.22372437 3.69683838 C-16.54462895 -3.07742751 -8.53648418 -3.45091914 0 0 Z " fill="#F49F1B" transform="translate(201.9375,195.1875)"/>
<path d="M0 0 C0.33 0.66 0.66 1.32 1 2 C2.66128463 2.35919668 4.32900023 2.68911632 6 3 C8.3125 4.0625 8.3125 4.0625 10 5 C10 5.66 10 6.32 10 7 C10.66 7.04125 11.32 7.0825 12 7.125 C20.21350332 9.52060514 26.40055805 17.17798338 32.1875 23.125 C38.77237861 29.91609162 38.77237861 29.91609162 46 36 C51.24564508 40.73387483 54.51153671 44.92268127 55.625 51.9375 C55.34666778 57.04688437 52.50944647 60.48248584 49 64 C44.78034696 67.09441223 41.34413207 67.47906737 36.3046875 66.70703125 C29.02861408 64.47487991 23.25813519 57.79295668 18.625 52.0625 C16.25277115 49.15316273 13.57356764 46.82596977 10.6875 44.4375 C9 43 9 43 6.5 40.4375 C0.30963511 34.40189423 -5.29285524 30.92123498 -14.16210938 31.02539062 C-19.45230035 31.2092857 -24.72398516 31.57882945 -30 32 C-30 31.34 -30 30.68 -30 30 C-29.34 30 -28.68 30 -28 30 C-27.773125 29.443125 -27.54625 28.88625 -27.3125 28.3125 C-25.62622733 25.34144815 -23.469646 23.35477875 -21 21 C-18.37086013 18.38862459 -15.76161384 15.75961807 -13.17578125 13.10546875 C-12.2213791 12.13278804 -11.26695188 11.16013192 -10.3125 10.1875 C-9.58450195 9.43436523 -9.58450195 9.43436523 -8.84179688 8.66601562 C-7.59875394 7.40582727 -6.30300108 6.19808956 -5 5 C-4.34 5 -3.68 5 -3 5 C-2.690625 4.360625 -2.38125 3.72125 -2.0625 3.0625 C-1 1 -1 1 0 0 Z " fill="#F2A01C" transform="translate(152,61)"/>
<path d="M0 0 C3.85434099 3.38714814 4.91433234 6.66420067 5.5625 11.6875 C5.32605021 17.30855643 2.35410711 21.59602755 -1.60546875 25.42578125 C-3.00671261 26.60735268 -4.46707075 27.71822707 -5.9375 28.8125 C-5.9375 27.4925 -5.9375 26.1725 -5.9375 24.8125 C-5.133125 24.565 -4.32875 24.3175 -3.5 24.0625 C-0.766419 23.09011141 -0.766419 23.09011141 -0.125 20.6875 C-0.0321875 19.759375 -0.0321875 19.759375 0.0625 18.8125 C0.7225 18.8125 1.3825 18.8125 2.0625 18.8125 C2.3925 14.8525 2.7225 10.8925 3.0625 6.8125 C2.4025 6.8125 1.7425 6.8125 1.0625 6.8125 C1.0625 6.1525 1.0625 5.4925 1.0625 4.8125 C-2.53263864 3.19077985 -5.49461789 2.46914185 -9.4375 2.375 C-10.3553125 2.33503906 -11.273125 2.29507813 -12.21875 2.25390625 C-16.03788297 3.03858443 -17.37669706 4.92062752 -19.9375 7.8125 C-21.80976285 9.73196275 -23.68464997 11.64853747 -25.5625 13.5625 C-26.03945312 14.05621094 -26.51640625 14.54992187 -27.0078125 15.05859375 C-29.31356524 17.39637083 -30.77342819 18.7578094 -33.9375 19.8125 C-34.205625 20.616875 -34.47375 21.42125 -34.75 22.25 C-35.141875 23.095625 -35.53375 23.94125 -35.9375 24.8125 C-37.93321323 25.49189174 -39.93344773 26.15811559 -41.9375 26.8125 C-42.98642238 28.44881892 -43.98656703 30.11735863 -44.9375 31.8125 C-49.41089751 35.7436675 -54.31467228 35.10728903 -59.9375 34.8125 C-59.36805664 34.52922852 -58.79861328 34.24595703 -58.21191406 33.95410156 C-57.46135742 33.57737305 -56.71080078 33.20064453 -55.9375 32.8125 C-55.24624023 32.47444336 -54.55498047 32.13638672 -53.84277344 31.78808594 C-45.18002107 27.10481998 -38.91726062 20.10074624 -32.1875 13.0625 C-29.8294629 10.59765507 -27.4581524 8.14672124 -25.078125 5.703125 C-24.54987122 5.14167786 -24.02161743 4.58023071 -23.47735596 4.00177002 C-16.68257915 -2.96979549 -8.78828893 -3.55271255 0 0 Z " fill="#D5952E" transform="translate(201.9375,195.1875)"/>
<path d="M0 0 C0.44730469 0.38671875 0.89460937 0.7734375 1.35546875 1.171875 C4.07880695 3.51777827 6.79807848 5.84134737 9.625 8.0625 C15.86299279 13.15138885 20.34528474 17.87529384 21.625 25.9375 C21.34666778 31.04688437 18.50944647 34.48248584 15 38 C10.78451045 41.091359 7.35160924 41.47771968 2.31640625 40.7109375 C-2.48378749 39.23769085 -6.76868747 36.21478899 -9.22265625 31.80078125 C-9.60744141 30.90939453 -9.60744141 30.90939453 -10 30 C-7.525 30.99 -7.525 30.99 -5 32 C-5 32.66 -5 33.32 -5 34 C-3.68 34 -2.36 34 -1 34 C-1 34.66 -1 35.32 -1 36 C4.28 36 9.56 36 15 36 C16.8844171 32.2311658 17.33429462 30.31987525 17.625 26.25 C17.69976562 25.26515625 17.77453125 24.2803125 17.8515625 23.265625 C17.92503906 22.14414063 17.92503906 22.14414063 18 21 C17.01 20.67 16.02 20.34 15 20 C15 19.01 15 18.02 15 17 C14.01 17 13.02 17 12 17 C12 16.34 12 15.68 12 15 C11.34 15 10.68 15 10 15 C10 13.68 10 12.36 10 11 C8.68 11 7.36 11 6 11 C4.296875 9.1015625 4.296875 9.1015625 2.75 6.625 C2.22921875 5.81289062 1.7084375 5.00078125 1.171875 4.1640625 C0 2 0 2 0 0 Z " fill="#C48D3A" transform="translate(186,87)"/>
<path d="M0 0 C1.01707031 0.30744141 1.01707031 0.30744141 2.0546875 0.62109375 C8.38298185 2.45296843 14.42572839 3.58643411 21 4 C21 4.66 21 5.32 21 6 C15.39 6 9.78 6 4 6 C3.938125 8.248125 3.87625 10.49625 3.8125 12.8125 C3.70703125 16.64453125 3.70703125 16.64453125 3 20 C0.58398279 21.94137292 -0.87463947 23 -4 23 C-4 24.98 -4 26.96 -4 29 C-5.98 29 -7.96 29 -10 29 C-10 28.34 -10 27.68 -10 27 C-10.86625 26.87625 -10.86625 26.87625 -11.75 26.75 C-14.6159304 25.79468987 -15.9990764 24.21530827 -18 22 C-16.89591797 22.06960937 -16.89591797 22.06960937 -15.76953125 22.140625 C-9.5123914 22.48570674 -9.5123914 22.48570674 -3.9375 20 C-3.298125 19.34 -2.65875 18.68 -2 18 C-1.34 18 -0.68 18 0 18 C1.52814822 12.26944418 1.88136486 5.64409459 0 0 Z " fill="#CD9F58" transform="translate(119,226)"/>
<path d="M0 0 C1.3096875 -0.00257812 2.619375 -0.00515625 3.96875 -0.0078125 C6.74876426 0.09674556 8.88025362 0.31427017 11.5 1.125 C12.7684375 1.3725 12.7684375 1.3725 14.0625 1.625 C18.11660312 2.4566109 19.89475681 3.30302315 22.4375 6.5 C24.2080841 8.67238747 25.54312175 10.15450436 27.875 11.75 C29.5 13.125 29.5 13.125 29.75 15.8125 C29.6675 16.575625 29.585 17.33875 29.5 18.125 C31.48 18.455 33.46 18.785 35.5 19.125 C35.5 20.445 35.5 21.765 35.5 23.125 C36.82 23.785 38.14 24.445 39.5 25.125 C39.17 25.785 38.84 26.445 38.5 27.125 C34.64086816 25.60891249 33.04492632 23.32433595 30.5 20.125 C28.78133815 18.56258014 27.00968649 17.08115694 25.22265625 15.59765625 C23.5 14.125 23.5 14.125 21 11.5625 C15.4463474 6.14768872 10.39866117 2.69387864 2.5 2.125 C-2.84979095 2.19409814 -8.17426441 2.64143628 -13.5 3.125 C-9.67855455 -0.69644545 -5.1958478 -0.01022805 0 0 Z " fill="#D69735" transform="translate(137.5,89.875)"/>
<path d="M0 0 C0 5.77747811 -4.5721601 9.80351105 -8.44151306 13.71940613 C-8.99577469 14.26961929 -9.55003632 14.81983246 -10.12109375 15.38671875 C-10.7028688 15.97040726 -11.28464386 16.55409576 -11.88404846 17.1554718 C-13.10782449 18.38060139 -14.33410006 19.60323881 -15.56274414 20.82348633 C-17.43546051 22.6854722 -19.29724002 24.55791607 -21.15820312 26.43164062 C-22.35352579 27.62564193 -23.54946858 28.81902281 -24.74609375 30.01171875 C-25.29833115 30.56800461 -25.85056854 31.12429047 -26.41954041 31.69743347 C-29.41976308 34.66178401 -32.27779909 36.94583594 -36 39 C-37.79521298 40.55745537 -37.79521298 40.55745537 -39.3125 42.1875 C-40.199375 43.115625 -41.08625 44.04375 -42 45 C-42.66 44.67 -43.32 44.34 -44 44 C-29.48 29.48 -14.96 14.96 0 0 Z " fill="#C0C0C0" transform="translate(107,64)"/>
<path d="M0 0 C1.32 0 2.64 0 4 0 C4 0.66 4 1.32 4 2 C-4.42857143 5.42857143 -4.42857143 5.42857143 -9 5 C-9 5.66 -9 6.32 -9 7 C-14.91781337 9.06189931 -20.20418214 9.24167838 -26.4375 9.125 C-27.35982422 9.11597656 -28.28214844 9.10695313 -29.23242188 9.09765625 C-31.48855809 9.0742766 -33.74413684 9.04150916 -36 9 C-36 8.34 -36 7.68 -36 7 C-37.60875 7.0928125 -37.60875 7.0928125 -39.25 7.1875 C-43.24316254 6.98784187 -44.08119822 6.46031743 -47 4 C-41.58990438 3.90743182 -36.25783372 3.89908617 -30.875 4.5 C-22.15961952 5.45923999 -13.71208596 4.82551068 -5 4 C-5 3.34 -5 2.68 -5 2 C-3.35 2 -1.7 2 0 2 C0 1.34 0 0.68 0 0 Z " fill="#DD9930" transform="translate(162,251)"/>
<path d="M0 0 C3 1 3 1 4.1875 2.9375 C5.58646022 8.21050391 5.50519895 13.47400524 4.4375 18.8125 C2.22239711 22.18330874 -0.3255961 24.31908177 -4 26 C-8.87918027 26.81736695 -13.65221221 26.50327176 -18 24 C-18.66 23.01 -19.32 22.02 -20 21 C-19.195625 21.5259375 -19.195625 21.5259375 -18.375 22.0625 C-14.3036664 23.66960537 -10.89101622 22.30294551 -6.875 20.9375 C-4 20 -4 20 0 20 C0.19522373 17.41703983 0.38144403 14.83395921 0.5625 12.25 C0.61857422 11.52039063 0.67464844 10.79078125 0.73242188 10.0390625 C0.97709908 6.45046349 0.99666259 3.44972775 0 0 Z " fill="#FEF8DD" transform="translate(116,223)"/>
<path d="M0 0 C0.33 0.66 0.66 1.32 1 2 C-1.09813693 6.19627385 -3.70170366 9.95531984 -8.0625 11.9375 C-10.71697873 13.39318188 -11.53620338 15.40508781 -13 18 C-13.66 18.33 -14.32 18.66 -15 19 C-15.33 19.99 -15.66 20.98 -16 22 C-17.62332967 23.38576923 -19.28724465 24.72641268 -21 26 C-20.01 26.33 -19.02 26.66 -18 27 C-18 27.66 -18 28.32 -18 29 C-21.96 29.99 -25.92 30.98 -30 32 C-30 31.34 -30 30.68 -30 30 C-29.34 30 -28.68 30 -28 30 C-27.773125 29.443125 -27.54625 28.88625 -27.3125 28.3125 C-25.62622733 25.34144815 -23.469646 23.35477875 -21 21 C-18.37086013 18.38862459 -15.76161384 15.75961807 -13.17578125 13.10546875 C-12.2213791 12.13278804 -11.26695188 11.16013192 -10.3125 10.1875 C-9.58450195 9.43436523 -9.58450195 9.43436523 -8.84179688 8.66601562 C-7.59875394 7.40582727 -6.30300108 6.19808956 -5 5 C-4.34 5 -3.68 5 -3 5 C-2.690625 4.360625 -2.38125 3.72125 -2.0625 3.0625 C-1 1 -1 1 0 0 Z " fill="#DBAE5F" transform="translate(152,61)"/>
<path d="M0 0 C1.32 0.33 2.64 0.66 4 1 C3.29230469 1.70511719 2.58460938 2.41023438 1.85546875 3.13671875 C-0.05180997 5.0426529 -1.94314768 6.96274343 -3.82421875 8.89453125 C-4.7786209 9.86721196 -5.73304812 10.83986808 -6.6875 11.8125 C-7.41549805 12.56563477 -7.41549805 12.56563477 -8.15820312 13.33398438 C-9.40124606 14.59417273 -10.69699892 15.80191044 -12 17 C-12.66 17 -13.32 17 -14 17 C-14.226875 17.556875 -14.45375 18.11375 -14.6875 18.6875 C-16.35896766 21.63246684 -18.55276352 23.68156544 -21 26 C-21.33 24.68 -21.66 23.36 -22 22 C-21.34 22 -20.68 22 -20 22 C-19.9175 21.21625 -19.835 20.4325 -19.75 19.625 C-19 17 -19 17 -17.125 15.6875 C-15 15 -15 15 -12 15 C-12 14.01 -12 13.02 -12 12 C-11.34 12 -10.68 12 -10 12 C-10.12375 10.8553125 -10.12375 10.8553125 -10.25 9.6875 C-10 7 -10 7 -8.25 5.1875 C-6 4 -6 4 -2 4 C-2 3.34 -2 2.68 -2 2 C-1.34 2 -0.68 2 0 2 C0 1.34 0 0.68 0 0 Z " fill="#FDF3D1" transform="translate(148,61)"/>
<path d="M0 0 C0 3.10551666 -0.5393715 4.35261084 -2 7 C-2.66 7 -3.32 7 -4 7 C-4.33 7.99 -4.66 8.98 -5 10 C-5.99 10 -6.98 10 -8 10 C-8.09667969 10.61230469 -8.19335938 11.22460938 -8.29296875 11.85546875 C-9.15974414 14.48452779 -9.96773006 14.93174683 -12.3125 16.3125 C-16.3529226 18.98412637 -17.75785536 21.74765671 -20 26 C-22.54365999 29.33307171 -23.55391353 29.91078271 -27.75 30.75 C-29.35875 30.87375 -29.35875 30.87375 -31 31 C-20.66666667 20.66666667 -10.33333333 10.33333333 0 0 Z " fill="#4C2808" transform="translate(201,219)"/>
<path d="M0 0 C1.2065625 1.1446875 1.2065625 1.1446875 2.4375 2.3125 C2.4375 2.9725 2.4375 3.6325 2.4375 4.3125 C3.4275 4.6425 4.4175 4.9725 5.4375 5.3125 C5.9325 6.7975 5.9325 6.7975 6.4375 8.3125 C5.7775 8.3125 5.1175 8.3125 4.4375 8.3125 C4.4375 7.6525 4.4375 6.9925 4.4375 6.3125 C3.4475 5.9825 2.4575 5.6525 1.4375 5.3125 C0.9425 4.3225 0.9425 4.3225 0.4375 3.3125 C-0.5525 2.9825 -1.5425 2.6525 -2.5625 2.3125 C-3.0575 1.3225 -3.0575 1.3225 -3.5625 0.3125 C-5.20613134 -0.40909424 -6.87300386 -1.08101421 -8.5625 -1.6875 C-8.5625 -2.3475 -8.5625 -3.0075 -8.5625 -3.6875 C-11.2025 -4.0175 -13.8425 -4.3475 -16.5625 -4.6875 C-16.5625 -5.3475 -16.5625 -6.0075 -16.5625 -6.6875 C-27.10023666 -6.03804056 -27.10023666 -6.03804056 -37.5625 -4.6875 C-37.2325 -5.3475 -36.9025 -6.0075 -36.5625 -6.6875 C-22.73693014 -10.70137512 -11.17454089 -8.77813585 0 0 Z " fill="#2E1705" transform="translate(158.5625,99.6875)"/>
<path d="M0 0 C0.99 0.33 1.98 0.66 3 1 C-0.53890676 4.56354832 -4.08102675 8.12385875 -7.6262207 11.68115234 C-8.83284912 12.89282261 -10.03858028 14.10538706 -11.2434082 15.31884766 C-12.97114063 17.0586522 -14.70203002 18.79525965 -16.43359375 20.53125 C-17.24611855 21.35151672 -17.24611855 21.35151672 -18.07505798 22.18835449 C-19.36453018 23.47802131 -20.67968865 24.7419233 -22 26 C-22.33 26 -22.66 26 -23 26 C-23 24.35 -23 22.7 -23 21 C-21.68 21 -20.36 21 -19 21 C-18.67 20.01 -18.34 19.02 -18 18 C-17.67 17.34 -17.34 16.68 -17 16 C-16.34 16 -15.68 16 -15 16 C-14.7525 15.360625 -14.505 14.72125 -14.25 14.0625 C-13 12 -13 12 -10.875 11.25 C-9.946875 11.12625 -9.946875 11.12625 -9 11 C-8.9175 10.38125 -8.835 9.7625 -8.75 9.125 C-8 7 -8 7 -5.9375 5.75 C-5.298125 5.5025 -4.65875 5.255 -4 5 C-4 4.34 -4 3.68 -4 3 C-2.68 2.67 -1.36 2.34 0 2 C0 1.34 0 0.68 0 0 Z " fill="#291001" transform="translate(178,197)"/>
<path d="M0 0 C11.16361425 0.62863071 11.16361425 0.62863071 15 4 C17.57772812 7.8221486 18.60964482 11.26844358 18.4140625 15.91796875 C17.08463199 22.6027467 12.24960477 27.09331738 7 31 C7 29.68 7 28.36 7 27 C7.804375 26.7525 8.60875 26.505 9.4375 26.25 C12.171081 25.27761141 12.171081 25.27761141 12.8125 22.875 C12.874375 22.25625 12.93625 21.6375 13 21 C13.66 21 14.32 21 15 21 C15.33 17.04 15.66 13.08 16 9 C15.34 9 14.68 9 14 9 C13.69449219 7.81857422 13.69449219 7.81857422 13.3828125 6.61328125 C12.21933947 3.73691574 12.21933947 3.73691574 9.1796875 2.85546875 C8.08914062 2.63503906 6.99859375 2.41460937 5.875 2.1875 C4.77929688 1.95417969 3.68359375 1.72085938 2.5546875 1.48046875 C1.71164063 1.32191406 0.86859375 1.16335937 0 1 C0 0.67 0 0.34 0 0 Z " fill="#A47734" transform="translate(189,193)"/>
<path d="M0 0 C0 0.66 0 1.32 0 2 C-2 4 -2 4 -3.8125 4.875 C-6.14660452 5.9725949 -6.14660452 5.9725949 -8.375 8 C-12.65020567 11.25729956 -16.66543235 12.3137981 -22 12 C-21.34 11.34 -20.68 10.68 -20 10 C-21.32 9.67 -22.64 9.34 -24 9 C-23 8 -23 8 -19.9375 7.9375 C-18.4834375 7.9684375 -18.4834375 7.9684375 -17 8 C-17 7.34 -17 6.68 -17 6 C-16.39671875 5.86722656 -15.7934375 5.73445312 -15.171875 5.59765625 C-14.37265625 5.42105469 -13.5734375 5.24445313 -12.75 5.0625 C-11.96109375 4.88847656 -11.1721875 4.71445313 -10.359375 4.53515625 C-8.23121297 4.052444 -6.11467158 3.53836822 -4 3 C-4 2.34 -4 1.68 -4 1 C-2 0 -2 0 0 0 Z " fill="#41240B" transform="translate(170,250)"/>
<path d="M0 0 C1.3096875 -0.00257812 2.619375 -0.00515625 3.96875 -0.0078125 C6.74876426 0.09674556 8.88025362 0.31427017 11.5 1.125 C12.7684375 1.3725 12.7684375 1.3725 14.0625 1.625 C16.5 2.125 16.5 2.125 19.5 3.125 C19.995 6.095 19.995 6.095 20.5 9.125 C17.49160931 8.03103975 15.11114015 6.86311479 12.4375 5.0625 C4.83729841 0.63455646 -5.13463041 1.92201543 -13.5 3.125 C-9.67855455 -0.69644545 -5.1958478 -0.01022805 0 0 Z " fill="#AD782D" transform="translate(137.5,89.875)"/>
<path d="M0 0 C1.60875 0.928125 1.60875 0.928125 3.25 1.875 C5.79780984 3.3323679 8.35259355 4.72924491 11 6 C11 6.66 11 7.32 11 8 C11.63808594 8.06058594 12.27617188 8.12117187 12.93359375 8.18359375 C13.75988281 8.26738281 14.58617188 8.35117188 15.4375 8.4375 C16.67306641 8.55931641 16.67306641 8.55931641 17.93359375 8.68359375 C20 9 20 9 21 10 C23.32817964 10.36760731 25.6618385 10.70241581 28 11 C28 11.66 28 12.32 28 13 C34.6 13 41.2 13 48 13 C48 13.33 48 13.66 48 14 C44.64590806 14.05859857 41.29194983 14.09379582 37.9375 14.125 C36.99455078 14.14175781 36.05160156 14.15851563 35.08007812 14.17578125 C29.66054016 14.21354807 25.17832497 13.79446905 20 12 C19.05253906 11.71898437 18.10507813 11.43796875 17.12890625 11.1484375 C16.28199219 10.89320313 15.43507813 10.63796875 14.5625 10.375 C13.69753906 10.11460937 12.83257812 9.85421875 11.94140625 9.5859375 C11.30074219 9.39257812 10.66007812 9.19921875 10 9 C10 8.34 10 7.68 10 7 C9.0925 6.9175 8.185 6.835 7.25 6.75 C3.57991912 5.90305826 2.30133672 4.92092737 0 2 C0 1.34 0 0.68 0 0 Z " fill="#65410F" transform="translate(98,247)"/>
<path d="M0 0 C0.33 0 0.66 0 1 0 C1.04254356 1.99954746 1.04080783 4.00041636 1 6 C0.67 6.33 0.34 6.66 0 7 C-0.09915627 8.47911215 -0.13079794 9.96288184 -0.1328125 11.4453125 C-0.13474609 12.81429687 -0.13474609 12.81429687 -0.13671875 14.2109375 C-0.13285156 15.17257813 -0.12898438 16.13421875 -0.125 17.125 C-0.12886719 18.0634375 -0.13273437 19.001875 -0.13671875 19.96875 C-0.12705765 26.86677454 0.56724 33.24555998 2 40 C-0.35448165 37.44931155 -0.98327924 36.28982642 -1.1875 32.75 C-1.125625 31.8425 -1.06375 30.935 -1 30 C-1.66 30 -2.32 30 -3 30 C-3 22.08 -3 14.16 -3 6 C-2.34 5.67 -1.68 5.34 -1 5 C-0.34444881 2.47266765 -0.34444881 2.47266765 0 0 Z " fill="#414141" transform="translate(38,143)"/>
<path d="M0 0 C0 5.59852112 -4.93561782 9.83177566 -8.5625 13.8125 C-11 16 -11 16 -13.4375 17.4375 C-16.85202293 19.51952617 -19.2390288 22.11061154 -22 25 C-22.66 24.67 -23.32 24.34 -24 24 C-16.08 16.08 -8.16 8.16 0 0 Z " fill="#ACACAC" transform="translate(87,84)"/>
<path d="M0 0 C0.66 0.33 1.32 0.66 2 1 C1.236875 1.721875 0.47375 2.44375 -0.3125 3.1875 C-3.044086 5.83926978 -3.044086 5.83926978 -4.6875 8.8125 C-5.120625 9.534375 -5.55375 10.25625 -6 11 C-6.66 11 -7.32 11 -8 11 C-8.2475 11.5775 -8.495 12.155 -8.75 12.75 C-10.18299988 15.32939979 -11.78424676 17.06121592 -14 19 C-14.66 19 -15.32 19 -16 19 C-16.33 19.99 -16.66 20.98 -17 22 C-19.5625 23.1875 -19.5625 23.1875 -22 24 C-21.505 22.515 -21.505 22.515 -21 21 C-20.34 21 -19.68 21 -19 21 C-19 20.34 -19 19.68 -19 19 C-16.68640668 16.48809868 -14.34075842 14.26005248 -11.625 12.1875 C-8.57665779 9.64721483 -6.11737212 6.82085859 -3.55078125 3.8046875 C-2 2 -2 2 0 0 Z " fill="#4A4A4A" transform="translate(102,111)"/>
<path d="M0 0 C0 3.24298494 -0.3257322 3.8970244 -2.125 6.4375 C-2.51945312 7.01371094 -2.91390625 7.58992188 -3.3203125 8.18359375 C-5.10408265 10.11255449 -7.03731923 11.31201172 -9.23876953 12.71704102 C-12.99646025 15.45431087 -16.13472578 18.93355297 -19.375 22.25 C-20.47908203 23.36761719 -20.47908203 23.36761719 -21.60546875 24.5078125 C-23.40830047 26.33405762 -25.20626978 28.16482205 -27 30 C-27.66 29.67 -28.32 29.34 -29 29 C-19.43 19.43 -9.86 9.86 0 0 Z " fill="#939393" transform="translate(142,29)"/>
<path d="M0 0 C0 4.89840306 -3.07008621 8.22694555 -6 12 C-9.95462361 15.62507164 -13.86881385 15.26241593 -18.98828125 15.10546875 C-19.65214844 15.07066406 -20.31601563 15.03585938 -21 15 C-20.43925781 14.72542969 -19.87851563 14.45085937 -19.30078125 14.16796875 C-11.83867452 10.37990438 -5.59841734 6.26577835 0 0 Z " fill="#DB9D32" transform="translate(163,215)"/>
<path d="M0 0 C0.969375 0.13277344 1.93875 0.26554688 2.9375 0.40234375 C12.61547826 1.68998221 22.25042624 2.50733537 32 3 C31.67 3.66 31.34 4.32 31 5 C24.4 5 17.8 5 11 5 C11 4.34 11 3.68 11 3 C9.39125 3.0928125 9.39125 3.0928125 7.75 3.1875 C3.75683746 2.98784187 2.91880178 2.46031743 0 0 Z " fill="#C68E3A" transform="translate(115,255)"/>
<path d="M0 0 C0.33 0 0.66 0 1 0 C1.04898438 1.18335938 1.09796875 2.36671875 1.1484375 3.5859375 C1.63577393 14.91025863 1.63577393 14.91025863 3.59765625 26.0546875 C4 28 4 28 4 32 C4.99 32 5.98 32 7 32 C7.33 34.64 7.66 37.28 8 40 C5.55899342 37.79611977 4.20702392 35.74967591 2.875 32.75 C2.54242188 32.02296875 2.20984375 31.2959375 1.8671875 30.546875 C-0.40039034 23.88714188 -0.12419756 17.0058486 -0.0625 10.0625 C-0.05798828 9.09248047 -0.05347656 8.12246094 -0.04882812 7.12304688 C-0.0371315 4.7486324 -0.02074086 2.37434979 0 0 Z " fill="#D7D7D7" transform="translate(37,150)"/>
<path d="M0 0 C0 6.46813299 -5.81076454 11.04347674 -10.09765625 15.36328125 C-12 17 -12 17 -15 18 C-13.58095673 13.48486232 -11.43265745 11.20878848 -8 8 C-6.55849399 6.56651721 -5.12118871 5.12880121 -3.6875 3.6875 C-2.45833333 2.45833333 -1.22916667 1.22916667 0 0 Z " fill="#B6B6B6" transform="translate(62,109)"/>
<path d="M0 0 C1.32 0.33 2.64 0.66 4 1 C4 1.66 4 2.32 4 3 C4.99580078 3.07347656 4.99580078 3.07347656 6.01171875 3.1484375 C10.7494348 3.54958718 14.61247795 4.10269317 19 6 C21.32597511 6.3813074 23.65912158 6.72460254 26 7 C26 7.33 26 7.66 26 8 C17.53060964 8.38692646 10.63405807 7.81702904 3 4 C3 3.34 3 2.68 3 2 C2.01 1.67 1.02 1.34 0 1 C0 0.67 0 0.34 0 0 Z " fill="#3E240E" transform="translate(116,222)"/>
<path d="M0 0 C3.71888239 0.50712033 6.73454239 1.11608215 10 3 C10 3.66 10 4.32 10 5 C10.78375 5.103125 11.5675 5.20625 12.375 5.3125 C15 6 15 6 17 9 C14.525 8.505 14.525 8.505 12 8 C12 7.34 12 6.68 12 6 C7.71 5.34 3.42 4.68 -1 4 C-0.67 2.68 -0.34 1.36 0 0 Z " fill="#D29934" transform="translate(152,63)"/>
<path d="M0 0 C0.99 0.33 1.98 0.66 3 1 C1.27705085 2.77726278 -0.45287096 4.54669663 -2.1875 6.3125 C-2.67025391 6.81201172 -3.15300781 7.31152344 -3.65039062 7.82617188 C-6.54427964 10.75890504 -9.31539251 13.13542315 -13 15 C-13.66 15 -14.32 15 -15 15 C-14.67 14.01 -14.34 13.02 -14 12 C-13.34 12 -12.68 12 -12 12 C-12 11.34 -12 10.68 -12 10 C-11.01 9.67 -10.02 9.34 -9 9 C-8.67 8.34 -8.34 7.68 -8 7 C-7.01 7 -6.02 7 -5 7 C-5 6.01 -5 5.02 -5 4 C-4.34 3.34 -3.68 2.68 -3 2 C-2.01 2 -1.02 2 0 2 C0 1.34 0 0.68 0 0 Z " fill="#CF9339" transform="translate(181,236)"/>
<path d="M0 0 C2.92801329 0.73705162 5.2368995 1.69116292 8 3 C8.33 3.99 8.66 4.98 9 6 C8.00419922 5.53980469 8.00419922 5.53980469 6.98828125 5.0703125 C3.42938193 3.79562176 -0.0806277 3.3106827 -3.8125 2.875 C-4.85180664 2.74544922 -4.85180664 2.74544922 -5.91210938 2.61328125 C-7.60733706 2.40283919 -9.30357755 2.20058328 -11 2 C-7.25261617 -0.49825589 -4.33491764 -0.5072776 0 0 Z " fill="#D79C39" transform="translate(194,194)"/>
<path d="M0 0 C0.84884766 0.50660156 0.84884766 0.50660156 1.71484375 1.0234375 C4.36393945 2.15552968 5.74363817 2.0542683 8.5625 1.625 C12.66422414 1.03014625 15.97240124 0.88893827 20 2 C18.12310738 3.95849665 16.61352249 4.92102043 13.90625 5.26953125 C9.57419216 5.34895231 5.84020369 5.21102637 2 3 C1.34 2.01 0.68 1.02 0 0 Z " fill="#EEDEBF" transform="translate(96,244)"/>
<path d="M0 0 C-5.06163433 4.21802861 -8.06854394 6.28408229 -14.75 6.125 C-15.73484375 6.10695312 -16.7196875 6.08890625 -17.734375 6.0703125 C-18.85585937 6.03550781 -18.85585937 6.03550781 -20 6 C-20 5.67 -20 5.34 -20 5 C-19.10796875 4.73445312 -18.2159375 4.46890625 -17.296875 4.1953125 C-16.12640625 3.84210938 -14.9559375 3.48890625 -13.75 3.125 C-12.58984375 2.77695313 -11.4296875 2.42890625 -10.234375 2.0703125 C-7.09971874 1.13515909 -7.09971874 1.13515909 -4.765625 -0.1953125 C-3 -1 -3 -1 0 0 Z " fill="#1E0A00" transform="translate(155,223)"/>
<path d="M0 0 C0.67095703 0.58007812 0.67095703 0.58007812 1.35546875 1.171875 C4.8521026 4.18390075 8.37407463 7.14321031 12 10 C11.67 10.99 11.34 11.98 11 13 C10.67 12.34 10.34 11.68 10 11 C8.68 11 7.36 11 6 11 C4.296875 9.1015625 4.296875 9.1015625 2.75 6.625 C2.22921875 5.81289062 1.7084375 5.00078125 1.171875 4.1640625 C0 2 0 2 0 0 Z " fill="#DC9834" transform="translate(186,87)"/>
<path d="M0 0 C0.72453369 0.16226074 1.44906738 0.32452148 2.19555664 0.49169922 C4.82836797 0.96889197 7.2012259 1.12911937 9.87109375 1.1328125 C10.77537109 1.13410156 11.67964844 1.13539063 12.61132812 1.13671875 C13.54396484 1.13285156 14.47660156 1.12898438 15.4375 1.125 C16.36626953 1.12886719 17.29503906 1.13273437 18.25195312 1.13671875 C22.94773585 1.13003436 27.38230069 0.97133575 32 0 C28.68135007 3.01341793 26.42381598 3.38423139 21.9921875 3.3984375 C20.84105469 3.40230469 19.68992188 3.40617187 18.50390625 3.41015625 C16.70759766 3.39275391 16.70759766 3.39275391 14.875 3.375 C13.66972656 3.38660156 12.46445313 3.39820313 11.22265625 3.41015625 C10.07410156 3.40628906 8.92554688 3.40242188 7.7421875 3.3984375 C6.6888623 3.39505371 5.63553711 3.39166992 4.55029297 3.38818359 C3.70869629 3.26008301 2.86709961 3.13198242 2 3 C1.34 2.01 0.68 1.02 0 0 Z " fill="#220C00" transform="translate(120,259)"/>
<path d="M0 0 C1.918125 0.4640625 1.918125 0.4640625 3.875 0.9375 C8.88758722 2.06114833 13.88510956 2.59422581 19 3 C19 3.66 19 4.32 19 5 C13.06 5 7.12 5 1 5 C0.67 3.35 0.34 1.7 0 0 Z " fill="#BA8436" transform="translate(121,227)"/>
<path d="M0 0 C1.32 0.33 2.64 0.66 4 1 C-2 7 -2 7 -5.0625 7.0625 C-6.031875 7.041875 -7.00125 7.02125 -8 7 C-8.33 8.65 -8.66 10.3 -9 12 C-9.33 12 -9.66 12 -10 12 C-10.25 9.6875 -10.25 9.6875 -10 7 C-8.25 5.1875 -8.25 5.1875 -6 4 C-4.68 4 -3.36 4 -2 4 C-2 3.34 -2 2.68 -2 2 C-1.34 2 -0.68 2 0 2 C0 1.34 0 0.68 0 0 Z " fill="#FDFCE8" transform="translate(148,61)"/>
<path d="M0 0 C0.66 0 1.32 0 2 0 C3.1482685 2.296537 3.11561175 3.58313167 3.09765625 6.1328125 C3.09282227 7.34130859 3.09282227 7.34130859 3.08789062 8.57421875 C3.07951172 9.41597656 3.07113281 10.25773438 3.0625 11.125 C3.05798828 11.97449219 3.05347656 12.82398438 3.04882812 13.69921875 C3.03702874 15.79950909 3.01909306 17.8997633 3 20 C1.02 20.99 -0.96 21.98 -3 23 C-1 18 -1 18 0.125 15.8125 C1.7173178 10.69433565 1.69299334 5.07898001 0 0 Z " fill="#DCAA53" transform="translate(119,226)"/>
<path d="M0 0 C3 1 3 1 4.1875 2.9375 C5.77912714 8.93670999 5.98053638 15.41149428 3 21 C2.01641887 18.0492566 1.95231007 16.36428207 2.0625 13.3125 C2.12582116 8.52119894 1.35789849 4.5829074 0 0 Z " fill="#EEDDB5" transform="translate(116,223)"/>
<path d="M0 0 C2.4164124 0.48328248 4.65832183 1.21944061 7 2 C7 2.66 7 3.32 7 4 C3.04 4.99 -0.92 5.98 -5 7 C-5 6.34 -5 5.68 -5 5 C-4.34 5 -3.68 5 -3 5 C-2.5359375 4.0409375 -2.5359375 4.0409375 -2.0625 3.0625 C-1 1 -1 1 0 0 Z " fill="#D3A55A" transform="translate(127,86)"/>
<path d="M0 0 C3.3 0.33 6.6 0.66 10 1 C10 1.66 10 2.32 10 3 C8.73542969 3.30744141 8.73542969 3.30744141 7.4453125 3.62109375 C6.34960938 3.89050781 5.25390625 4.15992188 4.125 4.4375 C2.48917969 4.83775391 2.48917969 4.83775391 0.8203125 5.24609375 C-1.92484721 5.8786478 -1.92484721 5.8786478 -4 7 C-3.67 5.68 -3.34 4.36 -3 3 C-1.68 3 -0.36 3 1 3 C0.67 2.01 0.34 1.02 0 0 Z " fill="#2E1A04" transform="translate(185,190)"/>
<path d="M0 0 C0.6875 1.6875 0.6875 1.6875 1 4 C-0.64076492 7.44560634 -1.78512442 8.85674962 -5 11 C-8.1875 11.125 -8.1875 11.125 -11 11 C-10.443125 10.608125 -9.88625 10.21625 -9.3125 9.8125 C-5.63239982 6.92809715 -2.59511485 3.89267228 0 0 Z " fill="#46280C" transform="translate(206,117)"/>
<path d="M0 0 C0.87011719 0.41572266 0.87011719 0.41572266 1.7578125 0.83984375 C6.17841841 2.88966266 10.09514353 4.4969378 15 5 C15 5.33 15 5.66 15 6 C10.05 6 5.1 6 0 6 C-1 2 -1 2 0 0 Z " fill="#351F0B" transform="translate(180,123)"/>
<path d="M0 0 C2.97 0.99 5.94 1.98 9 3 C9 4.32 9 5.64 9 7 C10.32 7.66 11.64 8.32 13 9 C12.67 9.66 12.34 10.32 12 11 C8.16735822 9.4943193 6.462238 7.23168738 4 4 C2.68505488 2.64852862 1.35735142 1.30887458 0 0 Z " fill="#BB8936" transform="translate(164,106)"/>
<path d="M0 0 C0.99 0.33 1.98 0.66 3 1 C-0.63 4.63 -4.26 8.26 -8 12 C-8.33 11.01 -8.66 10.02 -9 9 C-8.34 9 -7.68 9 -7 9 C-7 8.01 -7 7.02 -7 6 C-5.1875 3.8125 -5.1875 3.8125 -3 2 C-2.01 2 -1.02 2 0 2 C0 1.34 0 0.68 0 0 Z " fill="#CE963E" transform="translate(193,224)"/>
<path d="M0 0 C0.66 0 1.32 0 2 0 C2.3152595 5.98993047 1.68219822 9.63560356 -1 15 C-2.32 14.67 -3.64 14.34 -5 14 C-4.360625 12.989375 -3.72125 11.97875 -3.0625 10.9375 C-0.93151044 7.24780076 -0.34460387 4.22139745 0 0 Z " fill="#3D2408" transform="translate(207,204)"/>
<path d="M0 0 C0.78375 0.04125 1.5675 0.0825 2.375 0.125 C1.385 0.62 1.385 0.62 0.375 1.125 C0.375 1.785 0.375 2.445 0.375 3.125 C-3.03152872 6.33114467 -6.13900257 7.87309374 -10.625 9.125 C-9.66770084 7.99911986 -8.70912105 6.8743285 -7.75 5.75 C-7.21632812 5.12351563 -6.68265625 4.49703125 -6.1328125 3.8515625 C-2.88938849 0.13758993 -2.88938849 0.13758993 0 0 Z " fill="#BC8835" transform="translate(184.625,195.875)"/>
<path d="M0 0 C0.33 0.66 0.66 1.32 1 2 C-1.31 1.67 -3.62 1.34 -6 1 C-6 0.34 -6 -0.32 -6 -1 C-7.58467728 -0.71572583 -9.1677057 -0.42225182 -10.75 -0.125 C-12.07257813 0.11863281 -12.07257813 0.11863281 -13.421875 0.3671875 C-15.86947744 0.96796264 -17.80599857 1.77997117 -20 3 C-18.46355802 0.49317361 -17.58611765 -0.80462745 -14.75 -1.75 C-9.40094112 -2.23627808 -4.86164551 -2.57381233 0 0 Z " fill="#B0B0B0" transform="translate(174,15)"/>
<path d="M0 0 C0 3.20395416 -0.74335022 5.09399739 -2 8 C-1.01 8 -0.02 8 1 8 C1 8.99 1 9.98 1 11 C-1.31 10.34 -3.62 9.68 -6 9 C-5.52797514 4.75177626 -3.03344482 2.80010291 0 0 Z " fill="#453B30" transform="translate(159,54)"/>
<path d="M0 0 C1.60875 0.928125 1.60875 0.928125 3.25 1.875 C5.79780984 3.3323679 8.35259355 4.72924491 11 6 C11 6.66 11 7.32 11 8 C11.763125 8.12375 12.52625 8.2475 13.3125 8.375 C16 9 16 9 19 11 C15.97580475 10.41196203 12.98241547 9.77321882 10 9 C10 8.34 10 7.68 10 7 C9.0925 6.9175 8.185 6.835 7.25 6.75 C3.57991912 5.90305826 2.30133672 4.92092737 0 2 C0 1.34 0 0.68 0 0 Z " fill="#371E0D" transform="translate(98,247)"/>
<path d="M0 0 C0.66 0.33 1.32 0.66 2 1 C1.34 2.65 0.68 4.3 0 6 C-1.125 2.25 -1.125 2.25 0 0 Z M-5 6 C-3.68 6.33 -2.36 6.66 -1 7 C-5.75 11.875 -5.75 11.875 -8 13 C-7.38722388 10.03824877 -6.74627478 8.61941217 -5 6 Z " fill="#180400" transform="translate(207,213)"/>
<path d="M0 0 C0.66 0.33 1.32 0.66 2 1 C1.154375 1.66 0.30875 2.32 -0.5625 3 C-3.93515408 5.78784708 -6.68625586 8.97542369 -9.484375 12.328125 C-11 14 -11 14 -13 15 C-11.91768522 12.47459884 -10.93144376 10.93352122 -8.9375 9 C-6.84199057 7.19485135 -6.84199057 7.19485135 -6.5625 4.875 C-6.376875 4.25625 -6.19125 3.6375 -6 3 C-3.5 1.8125 -3.5 1.8125 -1 1 C-0.67 0.67 -0.34 0.34 0 0 Z " fill="#919191" transform="translate(117,96)"/>
<path d="M0 0 C0 3.10551666 -0.5393715 4.35261084 -2 7 C-2.66 7 -3.32 7 -4 7 C-4.33 7.99 -4.66 8.98 -5 10 C-8.0625 11.1875 -8.0625 11.1875 -11 12 C-7.49102731 7.81576108 -3.91939465 3.80411834 0 0 Z " fill="#4C290A" transform="translate(201,219)"/>
<path d="M0 0 C4.0205091 2.12193536 6.27336535 4.39380578 9 8 C10.31494512 9.35147138 11.64264858 10.69112542 13 12 C12.01 12.495 12.01 12.495 11 13 C10.34 12.34 9.68 11.68 9 11 C8.29875 10.34 7.5975 9.68 6.875 9 C5 7 5 7 5 5 C3.68 4.67 2.36 4.34 1 4 C0.67 2.68 0.34 1.36 0 0 Z " fill="#3E2406" transform="translate(165,108)"/>
<path d="M0 0 C0.99 0.33 1.98 0.66 3 1 C2.0919838 2.13199353 1.17316174 3.25532363 0.25 4.375 C-0.26046875 5.00148438 -0.7709375 5.62796875 -1.296875 6.2734375 C-3.08199481 8.08312318 -4.67949644 9.00117455 -7 10 C-6.21172254 8.70626218 -5.41924884 7.41508049 -4.625 6.125 C-4.18414062 5.40570313 -3.74328125 4.68640625 -3.2890625 3.9453125 C-2 2 -2 2 0 0 Z " fill="#CCCCCC" transform="translate(112,59)"/>
<path d="M0 0 C0 3.26229641 -0.21770324 4.32655486 -2 7 C-5.125 9.25 -5.125 9.25 -8 11 C-8.66 10.67 -9.32 10.34 -10 10 C-6.7 6.7 -3.4 3.4 0 0 Z " fill="#AFAFAF" transform="translate(153,18)"/>
<path d="M0 0 C1.134375 0.020625 2.26875 0.04125 3.4375 0.0625 C2.2309375 1.0215625 2.2309375 1.0215625 1 2 C-3.01753783 5.23362801 -2.90271146 6.87844715 -3.5625 12.0625 C-3.8925 12.0625 -4.2225 12.0625 -4.5625 12.0625 C-4.58937279 10.25007948 -4.60883715 8.43754767 -4.625 6.625 C-4.63660156 5.61566406 -4.64820312 4.60632813 -4.66015625 3.56640625 C-4.50618986 -0.38129207 -4.09874205 0.07190776 0 0 Z " fill="#EB9F30" transform="translate(126.5625,230.9375)"/>
<path d="M0 0 C2.97 0 5.94 0 9 0 C12.125 6.625 12.125 6.625 11 10 C10.484375 8.88625 9.96875 7.7725 9.4375 6.625 C8.19467053 4.40405925 7.47129124 3.23514102 5.17578125 2.08984375 C3.04770412 1.47406597 3.04770412 1.47406597 0 1 C0 0.67 0 0.34 0 0 Z " fill="#301403" transform="translate(195,193)"/>
<path d="M0 0 C1.64826111 2.96687001 2.44271087 5.65626525 3 9 C3.99 9 4.98 9 6 9 C6.33 11.64 6.66 14.28 7 17 C2.69958984 13.13086307 0.21853341 7.67703433 -0.25 1.9375 C-0.1675 1.298125 -0.085 0.65875 0 0 Z " fill="#BDBDBD" transform="translate(38,173)"/>
<path d="M0 0 C0.33 0 0.66 0 1 0 C1.08142927 1.7492214 1.13938541 3.49954542 1.1875 5.25 C1.22230469 6.22453125 1.25710937 7.1990625 1.29296875 8.203125 C0.96075202 11.37468742 0.11327721 12.67040307 -2 15 C-3.32 14.67 -4.64 14.34 -6 14 C-5.01 13.34 -4.02 12.68 -3 12 C-0.48435012 8.3662835 -0.42870745 4.28707452 0 0 Z " fill="#EBA228" transform="translate(203,108)"/>
<path d="M0 0 C1.60332791 -0.08121924 3.20784026 -0.13929134 4.8125 -0.1875 C6.15248047 -0.23970703 6.15248047 -0.23970703 7.51953125 -0.29296875 C10 0 10 0 13 3 C8.71 3 4.42 3 0 3 C0 2.01 0 1.02 0 0 Z " fill="#333333" transform="translate(160,11)"/>
<path d="M0 0 C0 4.29788387 -2.00515674 6.9889684 -5 10 C-7.8125 10.4375 -7.8125 10.4375 -10 10 C-6.66666667 6.66666667 -3.33333333 3.33333333 0 0 Z " fill="#B07D30" transform="translate(163,215)"/>
<path d="M0 0 C0 3.31934673 -0.43709146 4.02487607 -2.3125 6.625 C-2.95638672 7.54152344 -2.95638672 7.54152344 -3.61328125 8.4765625 C-5 10 -5 10 -8 11 C-7.43040847 7.37386801 -6.07625466 5.74482259 -3.4375 3.25 C-2.79683594 2.63640625 -2.15617188 2.0228125 -1.49609375 1.390625 C-1.00238281 0.93171875 -0.50867188 0.4728125 0 0 Z " fill="#B0B0B0" transform="translate(142,29)"/>
<path d="M0 0 C0.99 0 1.98 0 3 0 C2.67 1.32 2.34 2.64 2 4 C1.34 4 0.68 4 0 4 C-0.103125 4.928125 -0.20625 5.85625 -0.3125 6.8125 C-1.03227796 10.14965236 -1.57142872 10.83186532 -4 13 C-3.52140759 11.39566191 -3.04210442 9.79153584 -2.5625 8.1875 C-2.29566406 7.29417969 -2.02882812 6.40085938 -1.75390625 5.48046875 C-1.19612127 3.64526945 -0.60655425 1.81966274 0 0 Z " fill="#A5A5A5" transform="translate(43,130)"/>
<path d="M0 0 C3.42054006 1.14018002 4.2426201 1.92458518 6 5 C5.6875 7.25 5.6875 7.25 5 9 C4.67 7.68 4.34 6.36 4 5 C3.01 5 2.02 5 1 5 C1 4.34 1 3.68 1 3 C0.34 3 -0.32 3 -1 3 C-0.67 2.01 -0.34 1.02 0 0 Z " fill="#E19D38" transform="translate(197,99)"/>
<path d="M0 0 C0.66 0.33 1.32 0.66 2 1 C0.86525052 4.40424844 0.03188696 5.21653709 -3 7 C-3.99 6.67 -4.98 6.34 -6 6 C-2.25 1.125 -2.25 1.125 0 0 Z " fill="#E3AF4F" transform="translate(135,79)"/>
<path d="M0 0 C0 3.66842255 -0.79029126 5.10451959 -3 8 C-5.6875 8.8125 -5.6875 8.8125 -8 9 C-8 8.34 -8 7.68 -8 7 C-6.25 5.2734375 -6.25 5.2734375 -4 3.375 C-3.2575 2.74335937 -2.515 2.11171875 -1.75 1.4609375 C-1.1725 0.97882813 -0.595 0.49671875 0 0 Z " fill="#EBB96C" transform="translate(142,71)"/>
<path d="M0 0 C4.61691161 0.52464905 6.09987886 1.07490914 10 4 C6.7 3.67 3.4 3.34 0 3 C0 2.01 0 1.02 0 0 Z " fill="#A77B2D" transform="translate(152,63)"/>
<path d="M0 0 C2.475 0.99 2.475 0.99 5 2 C5 2.66 5 3.32 5 4 C5.66 4 6.32 4 7 4 C7.33 5.32 7.66 6.64 8 8 C3.96615872 5.92856799 2.07143201 4.03384128 0 0 Z " fill="#BD8A34" transform="translate(176,117)"/>
<path d="M0 0 C4.875 2.625 4.875 2.625 6 6 C6.99 6.33 7.98 6.66 9 7 C9.33 7.99 9.66 8.98 10 10 C9.34 10 8.68 10 8 10 C8 9.34 8 8.68 8 8 C7.01 7.67 6.02 7.34 5 7 C4.67 6.34 4.34 5.68 4 5 C3.01 4.67 2.02 4.34 1 4 C0.3125 1.9375 0.3125 1.9375 0 0 Z " fill="#452404" transform="translate(155,98)"/>
<path d="M0 0 C4.08378283 0.74250597 8.01939223 1.82923301 12 3 C11.67 3.66 11.34 4.32 11 5 C6.545 4.01 6.545 4.01 2 3 C2 2.34 2 1.68 2 1 C1.34 0.67 0.68 0.34 0 0 Z " fill="#120300" transform="translate(108,256)"/>
<path d="M0 0 C0.66 0 1.32 0 2 0 C2 1.98 2 3.96 2 6 C0.02 6 -1.96 6 -4 6 C-4 5.34 -4 4.68 -4 4 C-3.01 4 -2.02 4 -1 4 C-0.67 2.68 -0.34 1.36 0 0 Z " fill="#CE8F37" transform="translate(113,249)"/>
<path d="M0 0 C0.99 0.33 1.98 0.66 3 1 C0.48169253 4.12270126 -0.7261549 4.94523098 -4.75 5.75 C-6.35875 5.87375 -6.35875 5.87375 -8 6 C-5.63055987 3.38114512 -3.16266898 1.58133449 0 0 Z " fill="#291105" transform="translate(178,244)"/>
<path d="M0 0 C-1 2 -1 2 -3.375 3.125 C-6 4 -6 4 -9 4 C-8.67 3.34 -8.34 2.68 -8 2 C-7.34 2 -6.68 2 -6 2 C-6 1.34 -6 0.68 -6 0 C-3.50907189 -1.24546405 -2.58919267 -0.7767578 0 0 Z " fill="#130400" transform="translate(176,250)"/>
<path d="M0 0 C0.99 0 1.98 0 3 0 C2.67 1.65 2.34 3.3 2 5 C0.02 5.33 -1.96 5.66 -4 6 C-2.1875 3 -2.1875 3 0 0 Z " fill="#E09F37" transform="translate(164,215)"/>
<path d="M0 0 C2.31 1.98 4.62 3.96 7 6 C4 7 4 7 1 6 C0.67 4.02 0.34 2.04 0 0 Z " fill="#CF9538" transform="translate(175,76)"/>
<path d="M0 0 C0 3 0 3 -1.3125 4.60546875 C-1.869375 5.12753906 -2.42625 5.64960937 -3 6.1875 C-3.556875 6.71730469 -4.11375 7.24710937 -4.6875 7.79296875 C-5.120625 8.19128906 -5.55375 8.58960937 -6 9 C-6.66 8.67 -7.32 8.34 -8 8 C-3.375 2.25 -3.375 2.25 0 0 Z " fill="#161616" transform="translate(117,98)"/>
<path d="M0 0 C0 0.99 0 1.98 0 3 C-1.65 3 -3.3 3 -5 3 C-5 3.66 -5 4.32 -5 5 C-6.98 5 -8.96 5 -11 5 C-10.443125 4.731875 -9.88625 4.46375 -9.3125 4.1875 C-6.91066602 2.99300335 -6.91066602 2.99300335 -4.375 1.375 C-2 0 -2 0 0 0 Z " fill="#956826" transform="translate(153,225)"/>
<path d="M0 0 C0.33 1.32 0.66 2.64 1 4 C-1.97 6.475 -1.97 6.475 -5 9 C-5 7.68 -5 6.36 -5 5 C-3.35 4.34 -1.7 3.68 0 3 C0 2.01 0 1.02 0 0 Z " fill="#D0943E" transform="translate(201,215)"/>
<path d="M0 0 C0.66 0 1.32 0 2 0 C0.25 4.875 0.25 4.875 -2 6 C-1.34 4.02 -0.68 2.04 0 0 Z M-6 6 C-3.875 6.375 -3.875 6.375 -2 7 C-3.98 7.33 -5.96 7.66 -8 8 C-7.34 7.34 -6.68 6.68 -6 6 Z " fill="#EBA322" transform="translate(168,214)"/>
<path d="M0 0 C2.5 1.25 2.5 1.25 5 3 C5 4.32 5 5.64 5 7 C4.67 6.34 4.34 5.68 4 5 C3.01 5 2.02 5 1 5 C0.67 3.35 0.34 1.7 0 0 Z " fill="#C08537" transform="translate(192,93)"/>
<path d="M0 0 C0.99 0.33 1.98 0.66 3 1 C2.01 2.485 2.01 2.485 1 4 C0.34 4 -0.32 4 -1 4 C-1.33 5.32 -1.66 6.64 -2 8 C-2.66 7.67 -3.32 7.34 -4 7 C-3.39816251 4.97954558 -2.72693904 2.97888961 -2 1 C-1.34 0.67 -0.68 0.34 0 0 Z " fill="#E8DEC4" transform="translate(123,87)"/>
<path d="M0 0 C1.98 0.66 3.96 1.32 6 2 C5.67 3.32 5.34 4.64 5 6 C3.31237149 4.3545622 1.6459651 2.68711423 0 1 C0 0.67 0 0.34 0 0 Z " fill="#351803" transform="translate(196,95)"/>
<path d="M0 0 C0.99 0 1.98 0 3 0 C4.6875 2 4.6875 2 6 4 C5.67 4.66 5.34 5.32 5 6 C3.0625 5.25 3.0625 5.25 1 4 C0.25 1.875 0.25 1.875 0 0 Z " fill="#E59F35" transform="translate(157,96)"/>
<path d="M0 0 C1.32 0.33 2.64 0.66 4 1 C2.35 2.65 0.7 4.3 -1 6 C-1.33 4.68 -1.66 3.36 -2 2 C-1.34 2 -0.68 2 0 2 C0 1.34 0 0.68 0 0 Z " fill="#FCEFD4" transform="translate(148,61)"/>
<path d="M0 0 C0 0.99 0 1.98 0 3 C-2.5 4.6875 -2.5 4.6875 -5 6 C-4.75 4.125 -4.75 4.125 -4 2 C-1.9375 0.75 -1.9375 0.75 0 0 Z " fill="#331805" transform="translate(192,230)"/>
<path d="M0 0 C2.02054804 1.64169528 4.02043058 3.30911778 6 5 C6 5.33 6 5.66 6 6 C4.35 6 2.7 6 1 6 C0.67 4.02 0.34 2.04 0 0 Z " fill="#D0D1D0" transform="translate(102,209)"/>
</svg>
